<svg width="75" height="75" viewBox="0 0 75 75" fill="none" xmlns="http://www.w3.org/2000/svg">
<g clip-path="url(#clip0_11_5)">
<rect x="20.6162" y="16.2002" width="38.8667" height="43.2833" fill="white"/>
<path fill-rule="evenodd" clip-rule="evenodd" d="M37.4003 0.396973C47.6178 0.396973 56.869 4.53892 63.5655 11.2355C70.2612 17.9311 74.4031 27.1823 74.4031 37.3998C74.4031 47.6173 70.2612 56.8685 63.5655 63.565C56.869 70.2607 47.6178 74.4026 37.4003 74.4026C27.1828 74.4026 17.9316 70.2607 11.2351 63.565C4.53941 56.8685 0.397461 47.6173 0.397461 37.3998C0.397461 27.1823 4.53941 17.9311 11.236 11.2346C17.9316 4.53892 27.1828 0.396973 37.4003 0.396973ZM54.4963 38.9315C54.7649 38.7822 54.9972 38.5596 55.1615 38.2743C55.6447 37.4343 55.3549 36.3619 54.5149 35.8787L41.7984 28.5364L29.2286 21.279C28.9406 21.074 28.5882 20.9539 28.2083 20.9539C27.2349 20.9539 26.4461 21.7427 26.4461 22.7162V37.3998V52.0835H26.4531C26.4531 52.3803 26.5282 52.6815 26.6863 52.958C27.1695 53.798 28.2419 54.0877 29.0819 53.6046L41.7984 46.2623L54.4963 38.9315Z" fill="#336F8B"/>
</g>
<defs>
<clipPath id="clip0_11_5">
<rect width="75" height="75" fill="white"/>
</clipPath>
</defs>
</svg>
