<svg width="649" height="85" viewBox="0 0 649 85" fill="none" xmlns="http://www.w3.org/2000/svg">
<path d="M116.676 14.2721H167.315V24.0806H131.02V39.3956H160.143V49.2041H131.02V74.4997H116.676V14.2721Z" fill="#0a0a0a"/>
<path d="M370.4 24.0806H347.363V14.2721H407.673V24.0806H384.744V74.4997H370.4V24.0806Z" fill="#0a0a0a"/>
<path d="M425.552 14.2721H476.191V24.0806H439.896V38.7073H469.019V48.5158H439.896V64.6051H477.386V74.4997H425.552V14.2721Z" fill="#0a0a0a"/>
<path d="M531.14 75.188C524.258 75.188 517.955 74.0121 512.232 71.6604C506.509 69.3086 501.945 65.8384 498.54 61.2496C495.135 56.6035 493.433 50.9822 493.433 44.3859C493.433 37.8469 495.135 32.2543 498.54 27.6082C502.017 22.962 506.618 19.4631 512.341 17.1114C518.064 14.7596 524.33 13.5837 531.14 13.5837C537.226 13.5837 542.732 14.4728 547.658 16.251C552.657 17.9718 556.713 20.4382 559.829 23.6504C562.944 26.8051 564.827 30.4475 565.479 34.5774H550.483C549.976 31.2505 547.911 28.5546 544.289 26.4897C540.667 24.4247 536.284 23.3922 531.14 23.3922C526.649 23.3922 522.628 24.224 519.078 25.8874C515.601 27.4935 512.848 29.8739 510.819 33.0287C508.863 36.1834 507.885 39.9692 507.885 44.3859C507.885 48.8026 508.863 52.5883 510.819 55.7431C512.848 58.8979 515.601 61.2783 519.078 62.8844C522.628 64.4904 526.649 65.2935 531.14 65.2935C536.356 65.2935 540.776 64.261 544.398 62.196C548.092 60.1311 550.266 57.4639 550.918 54.1944H565.262C564.755 58.3243 562.98 61.9953 559.937 65.2074C556.895 68.3622 552.874 70.8287 547.875 72.6068C542.876 74.3276 537.298 75.188 531.14 75.188Z" fill="#0a0a0a"/>
<path d="M649 14.2721V74.4997H634.656V48.6018H600.751V74.4997H586.516V14.2721H600.751V38.7073H634.656V14.2721H649Z" fill="#0a0a0a"/>
<path d="M239.143 13.8838C239.361 13.8842 239.579 13.8846 239.804 13.885C239.923 13.8849 240.043 13.8849 240.167 13.8849C240.565 13.885 240.963 13.8864 241.361 13.8878C241.636 13.8881 241.911 13.8883 242.186 13.8885C242.912 13.8892 243.637 13.8909 244.363 13.8928C245.103 13.8946 245.843 13.8954 246.583 13.8963C248.036 13.8982 249.489 13.9012 250.942 13.9049C250.942 14.4314 250.929 15.0082 250.942 15.5722C250.952 15.8106 250.931 15.8557 250.942 16.0988C250.963 17.4284 251.052 17.0689 250.591 17.6784C250.153 18.1145 249.362 18.9069 249.362 18.9069C248.141 19.905 246.87 21.2962 245.764 22.4172C244.657 23.5395 243.395 24.7866 242.254 25.8396C242.78 26.4539 243.015 26.7583 243.482 27.2876C246.619 30.9595 248.635 35.6506 249.362 40.407C249.41 40.7131 249.41 40.7131 249.459 41.0254C249.825 44.075 249.723 47.4221 249.011 50.4111C248.963 50.6162 248.963 50.6162 248.914 50.8254C248.111 54.1057 246.67 57.3672 244.623 60.0642C244.514 60.2097 244.405 60.3552 244.293 60.505C238.444 68.0473 229.799 72.2174 220.427 73.4222C218.631 73.6359 216.835 73.6406 215.028 73.6334C214.857 73.633 214.687 73.6326 214.512 73.6322C211.997 73.6233 209.535 73.5615 207.064 73.052C206.89 73.0171 206.717 72.9823 206.538 72.9463C203.454 72.3087 199.711 71.1547 196.884 69.7471C196.709 69.9226 196.884 69.7471 196.533 70.0683C195.787 70.7923 196.533 70.0683 195.787 70.7923C194.954 71.4724 194.549 71.8349 193.901 72.5255C193.023 73.345 193.901 72.5255 193.023 73.345C191.97 74.2226 191.97 74.3103 191.092 75.0124C190.463 75.0369 189.162 75.0124 188.46 75.0124C188.187 75.0088 188.005 74.9893 187.733 74.9874C187.023 74.9801 186.441 75.0124 185.652 75.0124C184.925 74.9925 184.273 75.0221 183.546 75.0124C182.097 74.9931 180.474 75.0124 178.982 75.0124C178.954 74.4524 178.997 73.7301 178.982 73.1695C178.97 72.9334 178.982 71.941 178.982 71.6777C179.158 71.4724 178.982 71.6777 179.158 71.4724C179.51 71.1475 180.795 69.7446 181.176 69.454C182.58 68.1377 183.513 67.133 184.719 65.9109C185.074 65.5514 185.43 65.1924 185.785 64.8339C185.941 64.6762 186.096 64.5186 186.257 64.3562C186.68 63.9489 187.293 63.4067 187.758 63.0479C187.407 62.5214 187.187 62.244 186.716 61.7645C182.016 56.6764 180.145 49.6502 180.36 42.8665C180.707 35.9854 183.781 30.0567 188.46 25.1376C188.562 25.0265 188.663 24.9154 188.768 24.801C194.233 19.0204 202.69 16.1556 210.399 15.309C210.606 15.2859 210.813 15.2628 211.026 15.2391C217.956 14.6204 224.841 15.7239 231.284 18.2927C231.47 18.366 231.656 18.4393 231.847 18.5148C232.245 18.673 232.643 18.8326 233.04 18.9947C234.093 18.0997 235.099 17.1572 236.107 16.212C236.809 15.5543 237.519 14.9072 238.249 14.2799C238.686 13.9036 238.686 13.9036 239.143 13.8838ZM197.235 31.6315C193.589 35.7128 192.051 40.7748 192.321 46.1989C192.745 51.3786 195.531 55.7885 199.341 59.1867C204.247 63.3028 210.991 64.8677 217.274 64.4033C222.298 63.9486 227.122 62.1787 230.933 58.8356C231.077 58.7193 231.221 58.6031 231.369 58.4832C234.347 55.9924 236.308 52.3804 237.252 48.656C237.316 48.4106 237.316 48.4106 237.382 48.1603C238.362 43.5607 237.358 38.4672 234.904 34.4917C234.152 33.3336 233.267 32.2986 232.337 31.2805C232.165 31.0863 232.165 31.0863 231.989 30.8883C228.269 26.914 222.278 24.6462 216.923 24.414C209.516 24.225 202.463 26.1155 197.235 31.6315Z" fill="#0a0a0a"/>
<path d="M263.949 14.2101C265.499 14.1445 267.049 14.2404 268.6 14.2101C269.321 14.1956 270.337 14.2423 271.058 14.2101C274.304 14.2101 274.304 14.2101 276.235 14.2101C276.699 14.6871 278.429 16.2285 278.968 16.6923C280.118 17.83 278.968 16.6923 280.118 17.83C280.962 18.5822 281.787 19.354 282.612 20.1265C283.287 20.7583 283.966 21.386 284.649 22.0094C285.705 22.975 286.749 23.9533 287.791 24.9334C288.277 25.3894 288.763 25.8441 289.25 26.2977C290.504 27.4654 291.739 28.6437 292.936 29.869C293.315 30.2399 293.696 30.5875 294.097 30.933C296.441 33.1653 294.097 30.933 296.441 33.1653C296.644 33.3675 296.644 33.3675 296.851 33.5739C299.227 36.149 296.851 33.5739 299.227 36.149C300.146 35.1652 299.227 36.149 300.146 35.1652C302.067 33.1097 300.146 35.1652 302.067 33.1097C302.183 32.9939 302.299 32.878 302.418 32.7586C302.661 32.5158 302.904 32.2732 303.147 32.0308C303.515 31.6634 303.883 31.295 304.25 30.9265C304.488 30.6889 304.725 30.4513 304.963 30.2138C305.071 30.1056 305.179 29.9973 305.29 29.8857C305.951 29.2285 306.633 28.6048 307.34 27.9976C307.788 27.6048 308.2 27.1857 308.617 26.7591C309.272 26.0945 309.944 25.4649 310.654 24.8594C311.124 24.4434 311.56 23.9966 311.995 23.5451C312.337 23.2129 312.686 22.9002 313.046 22.588C313.797 21.9355 314.521 21.2573 315.242 20.5724C316.278 19.5933 317.32 18.6217 318.373 17.6614C318.744 17.3217 319.114 16.9809 319.483 16.6385C319.585 16.5445 319.686 16.4506 319.79 16.3538C319.984 16.1745 320.177 15.995 320.369 15.8153C320.458 15.7331 320.547 15.6509 320.638 15.5662C320.753 15.4592 320.753 15.4592 320.87 15.35C320.968 15.2634 321.065 15.1769 321.166 15.0877C321.78 14.5611 321.621 14.7138 321.78 14.5611C322.394 14.1224 322.394 14.1224 322.394 14.1224C322.572 14.1222 323.628 14.1103 323.809 14.1101C324.196 14.1107 324.583 14.1175 324.971 14.1244C325.241 14.1261 325.511 14.1273 325.781 14.1282C326.489 14.1315 327.197 14.1401 327.905 14.1499C328.629 14.1589 329.352 14.1629 330.076 14.1673C331.494 14.1767 333.087 14.1039 334.505 14.1224C334.505 17.1061 334.485 16.1285 334.485 17.6203C333.851 18.2224 332.379 19.5509 331.677 20.253C331.677 20.253 331.677 20.253 330.536 21.306C329.395 22.2714 329.307 22.4469 328.517 23.2367C327.815 23.9387 327.113 24.6408 326.411 25.3428C326.236 25.5183 325.996 25.7577 325.885 25.8693C325.545 26.2111 325.346 26.4044 325.007 26.7469C322.375 29.204 322.375 29.204 321.321 30.2571C319.391 32.1877 319.391 32.1877 318.513 33.0653C316.056 35.3469 316.056 35.3469 315.354 36.0489C314.126 37.2775 313.258 38.1343 312.195 39.2081C310.089 41.1388 310.089 41.1388 309.036 42.1918C308.94 42.2757 308.608 42.6319 308.509 42.7184C308.292 42.9073 308.207 43.0638 307.983 43.2449C305.77 45.3879 307.826 43.4712 305.701 45.5265C305.701 46.2286 305.704 47.7204 305.701 48.4225C305.7 48.715 305.704 49.0075 305.701 49.3C305.696 50.0874 305.701 50.3531 305.701 51.6694C305.71 52.4946 305.703 53.3013 305.701 54.1266C305.699 55.6862 305.687 57.3058 305.701 58.8653C305.719 60.9749 305.7 63.0741 305.701 65.1837C305.703 68.5031 305.679 71.6929 305.701 75.0123C301.415 75.0123 297.305 75.0123 292.889 75.0123C292.89 72.8854 292.887 70.8853 292.889 68.6939C292.887 67.3478 292.892 65.9156 292.889 64.5694C292.883 62.432 292.885 60.3885 292.889 58.2511C292.892 56.6944 292.895 55.1567 292.889 53.6C292.885 52.7758 292.885 51.8793 292.889 51.0551C292.892 50.279 292.895 49.5496 292.889 48.7735C292.887 48.489 292.886 47.8294 292.889 47.5449C292.959 45.8039 292.889 45.5265 292.889 45.5265C292.679 45.3636 291.704 44.2716 291.485 44.1224C290.783 43.4204 290.987 43.5999 290.783 43.4204C290.665 43.319 290.377 42.9983 290.256 42.8939C288.501 41.3143 288.501 41.3143 287.272 40.0857C285.701 38.493 285.598 38.3367 283.938 36.8387C282.709 35.6979 281.82 34.8199 280.778 33.7673C279.374 32.3478 279.199 32.1877 277.795 30.7836C276.438 29.4271 276.215 29.204 274.372 27.5367C272.96 26.087 272.88 26.0448 271.476 24.6408C270.248 23.4122 269.195 22.4469 267.703 21.0428C265.952 19.2719 266.137 19.4533 264.28 17.7958C264.105 17.5326 264.28 17.7958 263.929 17.3782C263.931 17.159 263.931 17.159 263.932 16.9353C263.933 16.7775 263.933 16.6197 263.934 16.4571C263.935 16.2912 263.937 16.1252 263.938 15.9543C263.939 15.7876 263.94 15.621 263.941 15.4493C263.943 15.0362 263.946 14.6232 263.949 14.2101Z" fill="#0a0a0a"/>
<rect width="28.1698" height="28.1698" fill="#3886A3"/>
<rect y="56.3391" width="28.1698" height="28.1698" fill="#3886A3"/>
<rect x="27.1335" width="30.0478" height="14.1173" fill="#3886A3"/>
<rect x="28.1692" y="28.1692" width="28.1698" height="28.1698" fill="#3886A3"/>
<rect x="56.3398" width="28.1698" height="28.1698" fill="#3886A3"/>
</svg>
