<svg width="2058" height="306" viewBox="0 0 2058 306" fill="none" xmlns="http://www.w3.org/2000/svg">
<g clip-path="url(#clip0_59_16)">
<path d="M112.274 191.557H63.8305V299.945H-0.251953V0.915039H130.234C144.101 0.915039 157.174 3.05228 169.392 7.32675C181.61 11.6012 192.24 17.8297 201.281 25.9512C210.322 34.0727 217.469 44.0872 222.784 55.8725C228.038 67.7189 230.726 81.0309 230.726 95.8694C230.726 117.242 225.167 134.706 215.576 149.789C207.878 161.941 196.088 174.153 175.868 182.397L239.889 299.945H168.171M121.498 143.377C133.961 143.377 144.468 139.408 153.082 131.47C161.695 123.531 166.032 111.929 166.032 96.6632C166.032 81.3973 161.756 69.7951 153.082 61.8568C144.468 53.9185 133.961 49.9494 121.498 49.9494H63.4639V143.805L121.498 143.377Z" fill="white"/>
<path d="M519.982 0.427734V195.527C519.982 210.915 517.355 225.204 512.041 238.333C506.787 251.4 498.907 262.941 488.521 272.773C478.136 282.604 465.063 290.298 449.363 295.855C433.663 301.412 415.52 304.221 394.994 304.221C374.468 304.221 356.325 301.412 340.625 295.855C324.925 290.298 311.852 282.604 301.467 272.773C291.02 262.941 283.201 251.4 277.947 238.333C272.694 225.204 270.006 210.915 270.006 195.527V0.427734H332.927V190.031C332.927 210.549 338.181 225.937 348.75 236.257C359.318 246.576 374.59 251.645 394.566 251.645C414.543 251.645 429.815 246.515 440.383 236.257C450.891 225.998 456.205 210.61 456.205 190.031V0.427734H519.982Z" fill="white"/>
<path d="M883.279 0.427734V299.946H827.81V92.451L745.401 299.946H706.304L623.651 92.451V299.946H568.793V0.427734H640.511L725.608 217.144L811.255 0.427734H883.279Z" fill="white"/>
<path d="M1052.74 0.000976562C1067.46 0.000976562 1081.15 2.50459 1093.85 7.51183C1106.56 12.5191 1117.62 19.5414 1126.96 28.701C1136.31 37.8606 1143.7 48.73 1149.02 61.4313C1154.39 74.1326 1157.08 88.0551 1157.08 103.199C1157.08 118.343 1154.39 132.204 1149.02 144.906C1143.7 157.607 1136.31 168.415 1126.96 177.392C1117.62 186.429 1106.56 193.39 1093.85 198.398C1081.15 203.405 1067.58 205.908 1053.11 205.908H994.03V300.008H931.111V0.428422L1052.68 0.000976562H1052.74ZM1045.16 156.386C1051.82 156.386 1058.12 155.164 1064.04 152.783C1069.97 150.34 1075.16 146.799 1079.56 142.097C1084.02 137.395 1087.5 131.838 1090.13 125.365C1092.75 118.892 1094.04 111.687 1094.04 103.626C1094.04 95.566 1092.75 88.2383 1090.13 81.7045C1087.5 75.1706 1084.02 69.5528 1079.56 64.973C1075.16 60.3932 1069.97 56.8515 1064.04 54.2868C1058.12 51.7221 1051.82 50.5008 1045.16 50.5008H994.09V155.958L1045.16 156.325V156.386Z" fill="white"/>
<path d="M1567.9 0.427734H1632.54V247.737H1783.73V299.946H1567.9V0.427734Z" fill="white"/>
<path d="M1827.04 0.427273H2050.14V51.5988H1890.39V116.265H2037.31V169.025H1890.39V247.492H2058.08V299.885H1827.47L1827.04 0.366211V0.427273Z" fill="white"/>
<path fill-rule="evenodd" clip-rule="evenodd" d="M1489.37 59.2488L1530.95 17.67V0.300781H1470.4L1443.66 25.0772C1441.19 25.0305 1438.49 24.2291 1436.16 23.2648C1408.92 11.968 1380.63 5.73945 1351.01 5.86158L1351.07 5.67839C1325.59 5.73945 1301.1 10.6246 1277.03 18.9293C1217.34 39.5078 1173.3 102.22 1179.53 161.758C1181.48 180.749 1185.76 198.885 1194.62 215.86C1199.57 225.325 1205.92 233.752 1213.19 241.568C1213.34 241.732 1213.52 241.916 1213.71 242.118C1214.61 243.049 1215.86 244.35 1216.57 245.694L1173.64 288.63V305.999H1234.18L1262.28 279.97C1263.15 279.873 1264.08 280.081 1265.18 280.588C1304.03 298.358 1344.84 302.571 1386.62 296.098C1426.82 289.87 1461.76 272.772 1489.74 242.545C1533.23 195.587 1536.84 122.616 1497.92 71.7495C1495.6 68.6514 1493.04 65.6696 1490.54 62.7473L1490.35 62.5289C1489.32 61.3379 1488.96 60.3126 1489.37 59.2488ZM1239.76 154.003C1239.76 184.535 1253.63 208.533 1276.6 227.157C1317.16 260.132 1389 261.964 1432.74 222.333C1455.53 201.694 1466.83 175.863 1463.96 145.454C1460.17 104.846 1437.14 77.4895 1400 62.0404C1372.2 50.4382 1343.61 51.2931 1315.02 58.9261C1295.66 64.1165 1278.74 73.7036 1264.99 88.3589C1247.76 106.739 1240.01 128.966 1239.7 154.003H1239.76Z" fill="white"/>
</g>
<defs>
<clipPath id="clip0_59_16">
<rect width="2058" height="306" fill="white"/>
</clipPath>
</defs>
</svg>
